<?xml version="1.0" encoding="UTF-8" standalone="no"?>
<!DOCTYPE svg PUBLIC "-//W3C//DTD SVG 20010904//EN" "http://www.w3.org/TR/2001/REC-SVG-20010904/DTD/svg10.dtd">

<svg xmlns="http://www.w3.org/2000/svg" width="11.8056in" height="11.8056in" viewBox="0 0 850 850">
  <path id="wg-border" fill="none" d="M 850.00,0.00
           C 850.00,0.00 850.00,850.00 850.00,850.00
             850.00,850.00 0.00,850.00 0.00,850.00
             0.00,850.00 0.00,0.00 0.00,0.00
             0.00,0.00 850.00,0.00 850.00,0.00 Z
           M 10.00,10.00
           C 10.00,10.00 10.00,840.00 10.00,840.00
             10.00,840.00 840.00,840.00 840.00,840.00
             840.00,840.00 840.00,10.00 840.00,10.00
             840.00,10.00 10.00,10.00 10.00,10.00 Z" />
  <path id="wg-drop" fill="#FFFFFF" d="M 477.88,222.59
           C 529.73,320.48 578.45,321.29 616.00,446.39
             624.25,481.74 622.51,494.41 620.77,530.57
             615.88,514.52 613.91,473.95 603.44,452.55
             603.44,452.55 577.63,401.75 577.63,401.75
             535.08,341.52 471.25,294.67 447.65,222.59
             429.98,168.52 437.53,133.41 438.00,80.63
             448.93,108.18 441.49,153.87 477.88,222.59 Z
           M 418.70,172.13
           C 401.26,291.18 354.06,312.22 276.28,390.24
             254.19,412.33 204.54,476.27 193.38,497.66
             219.19,410.12 301.39,343.03 354.64,272.93
             387.19,229.91 418.58,153.06 420.79,99.00
             426.49,126.32 422.07,146.90 418.70,172.13 Z
           M 247.91,468.95
           C 231.87,497.55 224.42,514.17 223.26,547.43
             219.66,659.85 330.92,760.54 441.49,754.14
             460.32,752.98 485.09,747.17 503.11,741.47
             527.87,733.68 540.66,731.47 566.01,714.61
             566.01,714.61 581.58,704.15 581.58,704.15
             562.05,734.84 530.43,746.82 497.53,757.40
             407.31,786.35 305.58,768.56 243.84,691.94
             201.87,639.74 184.20,566.26 211.17,502.55
             226.17,467.44 253.84,441.39 277.67,412.21
             271.86,434.88 258.14,450.93 247.91,468.95 Z
           M 267.56,603.35
           C 296.51,676.83 335.11,692.06 374.29,732.17
             349.17,724.84 333.71,715.66 312.67,699.96
             239.07,645.09 226.05,561.96 253.03,483.83
             262.56,520.80 243.03,541.26 267.56,603.35 Z
           M 648.79,553.01
           C 647.74,633.00 580.19,709.26 503.11,726.59
             503.11,726.59 556.70,685.90 556.70,685.90
             613.44,638.69 641.81,552.08 635.53,481.16
             652.27,506.73 649.02,529.17 648.79,553.01 Z" />
  <path id="wg-line" fill="#FFFFFF" d="M 509.93,413.73
                C 496.44,509.27 459.80,526.06 399.54,588.65
                  382.35,606.42 343.92,657.65 335.21,674.81
                  355.26,604.57 418.99,550.75 460.28,494.58
                  485.58,460.14 509.81,398.54 511.60,355.09
                  515.89,376.94 512.55,393.61 509.93,413.73 Z" />
  <path id="wg-rose" fill="#FFFFFF" d="M 480.58,552.06
                     C 487.94,549.66 494.84,549.47 502.46,549.47
                       509.93,549.47 517.70,549.83 524.80,552.41
                       530.03,554.31 536.19,557.33 538.48,562.70
                       538.48,562.70 549.88,552.67 549.88,552.67
                       549.88,552.67 543.95,566.34 543.95,566.34
                       551.60,568.14 556.75,574.02 560.64,580.48
                       562.94,584.29 564.11,586.84 565.75,590.96
                       570.16,602.12 574.58,619.57 569.73,631.09
                       568.89,633.08 567.61,634.85 566.29,636.56
                       568.65,637.24 578.00,642.28 579.97,643.85
                       579.97,643.85 564.47,642.03 564.47,642.03
                       564.47,642.03 564.47,644.76 564.47,644.76
                       564.36,654.37 556.63,662.96 549.88,668.95
                       540.20,677.54 525.88,686.86 512.49,686.71
                       509.09,686.67 507.89,686.05 504.74,685.34
                       504.74,685.34 502.01,699.93 502.01,699.93
                       502.01,699.93 499.27,685.34 499.27,685.34
                       496.64,686.10 494.75,686.68 491.98,686.71
                       477.41,686.88 461.36,676.14 451.40,666.19
                       444.09,658.90 439.55,652.67 439.55,642.03
                       439.55,642.03 429.97,643.13 429.97,643.13
                       429.97,643.13 424.50,643.40 424.50,643.40
                       424.50,643.40 437.72,636.56 437.72,636.56
                       428.05,623.91 433.09,604.48 438.45,590.96
                       439.90,587.32 441.45,583.86 443.47,580.48
                       447.45,573.81 452.70,568.13 460.52,566.34
                       460.52,566.34 454.13,552.67 454.13,552.67
                       454.13,552.67 465.53,562.70 465.53,562.70
                       468.00,556.91 474.94,553.90 480.58,552.06 Z
                     M 510.67,552.86
                     C 504.09,551.84 498.06,551.92 491.52,553.21
                       489.40,553.63 487.01,553.85 485.14,554.95
                       490.02,556.74 497.25,557.69 502.46,557.68
                       502.46,557.68 518.88,555.40 518.88,555.40
                       517.37,553.45 513.04,553.23 510.67,552.86 Z
                     M 469.01,569.99
                     C 469.68,572.30 472.05,575.23 473.43,577.29
                       473.43,577.29 484.51,592.79 484.51,592.79
                       486.70,595.70 491.35,602.93 494.71,603.88
                       499.30,605.18 500.17,599.11 500.23,595.98
                       500.23,595.98 500.23,585.95 500.23,585.95
                       500.23,585.95 500.23,575.92 500.23,575.92
                       500.20,575.24 500.19,574.30 500.23,573.65
                       500.92,571.77 502.39,571.27 503.39,572.80
                       503.97,573.70 503.89,574.90 503.87,575.92
                       503.87,575.92 504.30,598.26 504.30,598.26
                       504.49,600.94 505.89,604.69 509.30,603.97
                       512.40,603.32 517.08,596.33 519.05,593.70
                       519.05,593.70 529.56,579.11 529.56,579.11
                       531.23,576.75 534.64,572.17 535.39,569.53
                       536.90,564.17 531.28,559.36 526.63,558.04
                       525.32,557.67 524.32,557.69 522.98,557.68
                       514.25,557.64 508.59,562.67 502.01,562.66
                       498.10,562.66 492.55,559.98 488.79,558.76
                       485.46,557.67 482.22,557.45 478.76,557.83
                       473.36,559.04 467.23,563.76 469.01,569.99 Z
                     M 456.87,572.06
                     C 447.67,577.28 449.68,588.05 449.57,596.89
                       449.45,607.53 437.40,611.77 437.27,622.88
                       437.21,628.15 439.11,634.67 445.47,634.98
                       447.60,635.08 453.20,633.17 455.50,632.46
                       455.50,632.46 475.11,626.22 475.11,626.22
                       478.38,625.12 487.30,622.89 486.35,618.32
                       485.91,616.16 483.40,614.51 481.49,613.73
                       481.49,613.73 476.02,611.94 476.02,611.94
                       476.02,611.94 464.62,608.14 464.62,608.14
                       463.14,607.64 456.68,606.30 457.86,603.87
                       458.87,601.76 464.37,604.26 465.99,604.79
                       465.99,604.79 481.04,609.68 481.04,609.68
                       483.38,610.37 486.52,611.18 488.76,609.68
                       493.03,606.94 488.17,601.05 486.24,598.26
                       486.24,598.26 470.95,577.29 470.95,577.29
                       468.25,573.73 466.36,570.48 461.43,570.60
                       459.80,570.88 458.33,571.23 456.87,572.06 Z
                     M 531.59,579.57
                     C 531.59,579.57 517.36,599.17 517.36,599.17
                       515.51,601.91 511.06,607.56 515.71,609.97
                       518.31,611.32 521.78,610.20 524.35,609.35
                       524.35,609.35 538.94,604.64 538.94,604.64
                       540.32,604.18 545.98,601.64 546.41,604.25
                       546.76,606.44 541.83,607.48 540.31,607.99
                       540.31,607.99 521.16,614.59 521.16,614.59
                       518.87,615.81 516.47,618.38 518.24,621.04
                       520.09,623.82 528.31,626.02 531.64,627.13
                       531.64,627.13 550.34,633.10 550.34,633.10
                       552.39,633.70 556.54,635.12 558.54,635.11
                       564.37,635.05 567.47,627.91 567.16,622.88
                       566.62,614.04 558.66,609.19 555.52,601.91
                       551.94,593.62 558.69,581.70 549.42,573.73
                       548.30,572.77 546.72,571.83 545.32,571.34
                       543.59,570.74 541.64,570.83 539.85,571.10
                       536.37,572.47 533.79,576.63 531.59,579.57 Z
                     M 437.08,606.01
                     C 436.65,608.68 435.80,612.59 436.81,615.13
                       436.81,615.13 442.80,603.73 442.80,603.73
                       445.45,597.53 446.84,589.48 446.84,582.76
                       441.88,587.62 438.18,599.15 437.08,606.01 Z
                     M 558.05,591.42
                     C 559.35,599.32 559.86,600.67 563.45,607.83
                       564.75,610.43 565.90,613.19 568.12,615.13
                       567.59,603.67 564.47,592.12 557.63,582.76
                       556.87,584.69 557.69,589.24 558.05,591.42 Z
                     M 502.85,613.63
                     C 504.66,612.79 504.82,609.39 501.20,609.94
                       498.41,611.93 500.94,614.52 502.85,613.63 Z
                     M 496.93,617.11
                     C 498.63,616.54 499.18,612.90 495.65,613.15
                       492.30,615.12 495.07,617.73 496.93,617.11 Z
                     M 508.35,617.16
                     C 510.38,616.78 511.11,613.20 507.52,613.09
                       504.42,614.43 506.11,617.59 508.35,617.16 Z
                     M 502.01,620.47
                     C 504.30,620.47 505.30,617.30 502.01,616.43
                       498.69,617.31 499.87,620.47 502.01,620.47 Z
                     M 496.52,623.98
                     C 498.60,623.70 499.37,619.89 495.67,619.91
                       492.52,621.33 494.64,624.24 496.52,623.98 Z
                     M 508.37,623.91
                     C 510.45,623.41 511.12,619.38 507.09,619.97
                       504.42,621.81 506.64,624.32 508.37,623.91 Z
                     M 502.86,627.16
                     C 504.64,626.46 504.89,623.08 501.57,623.20
                       498.29,625.07 500.64,628.03 502.86,627.16 Z
                     M 459.15,633.37
                     C 456.77,634.16 448.44,636.96 446.92,638.15
                       441.91,641.85 443.49,649.29 446.92,653.42
                       452.78,660.27 462.66,659.09 469.18,663.82
                       476.17,668.88 478.52,682.18 490.61,682.59
                       494.38,682.71 498.65,681.37 500.18,677.59
                       500.75,676.18 500.63,674.53 500.64,673.03
                       500.64,673.03 501.10,665.74 501.10,665.74
                       501.10,665.74 501.10,645.68 501.10,645.68
                       501.10,645.68 500.66,639.75 500.66,639.75
                       500.47,635.84 499.33,631.49 494.26,634.03
                       491.98,635.17 490.23,637.75 488.73,639.75
                       488.73,639.75 480.07,651.60 480.07,651.60
                       479.22,652.76 476.29,657.52 474.48,656.18
                       472.76,654.92 476.63,650.46 477.46,649.32
                       479.71,646.23 487.77,635.59 488.93,632.91
                       490.86,628.45 489.40,625.29 484.23,625.75
                       484.23,625.75 459.15,633.37 459.15,633.37 Z
                     M 515.38,633.37
                     C 515.38,633.37 526.56,649.32 526.56,649.32
                       527.44,650.53 531.26,654.90 529.54,656.28
                       527.81,657.67 524.77,652.73 523.95,651.60
                       523.95,651.60 514.94,639.29 514.94,639.29
                       513.36,637.19 511.48,634.47 508.85,633.66
                       503.29,631.96 503.56,638.26 503.34,641.57
                       503.34,641.57 502.92,647.04 502.92,647.04
                       502.92,647.04 502.92,663.91 502.92,663.91
                       502.92,663.91 503.37,670.75 503.37,670.75
                       503.40,672.81 503.16,675.72 503.90,677.59
                       505.70,682.20 511.32,683.22 515.69,682.39
                       525.66,680.51 528.11,669.21 535.29,663.64
                       539.94,660.03 548.93,659.98 554.44,655.89
                       556.14,654.62 557.64,653.03 558.62,651.15
                       560.59,647.39 561.43,642.14 558.04,638.93
                       556.16,637.16 552.36,636.02 549.88,635.19
                       549.88,635.19 535.75,630.48 535.75,630.48
                       531.35,629.02 521.30,625.26 517.06,625.81
                       513.45,627.27 513.96,630.36 515.38,633.37 Z
                     M 456.42,666.65
                     C 461.39,671.65 471.28,678.56 478.30,679.87
                       477.06,677.56 476.45,677.21 474.78,675.31
                       467.80,667.35 460.92,663.85 451.40,659.81
                       451.43,661.90 454.93,665.15 456.42,666.65 Z
                     M 531.19,673.49
                     C 528.84,675.84 527.53,677.02 525.72,679.87
                       532.58,678.63 542.26,671.98 547.15,667.10
                       549.42,664.83 551.79,662.82 553.07,659.81
                       544.15,662.92 537.87,666.80 531.19,673.49 Z" />
  <path id="wg-shell" fill="#FFFFFF" d="M 299.94,469.71
                          C 299.92,467.35 300.29,462.90 299.10,460.95
                            297.40,458.18 293.08,457.50 291.44,450.76
                            290.40,446.46 290.90,441.73 292.36,437.59
                            293.25,435.08 295.15,431.89 295.25,429.35
                            295.25,429.35 292.91,419.47 292.91,419.47
                            292.24,415.70 292.83,412.44 293.71,408.76
                            297.30,393.58 318.48,390.33 332.06,381.16
                            335.10,379.11 339.10,376.26 340.04,372.53
                            340.73,369.74 339.63,364.37 341.14,362.18
                            343.42,358.85 349.59,361.06 353.47,359.57
                            358.24,357.73 358.97,352.79 365.82,351.00
                            369.96,349.92 376.00,350.15 379.59,352.67
                            382.62,354.79 385.11,358.40 388.88,359.70
                            392.64,360.99 398.26,358.88 400.39,362.08
                            402.01,364.51 400.59,370.27 401.73,373.35
                            403.18,377.29 409.24,381.01 412.76,383.18
                            423.64,389.89 442.13,393.33 447.09,406.29
                            448.74,410.61 449.44,415.73 448.62,420.29
                            448.62,420.29 446.33,429.35 446.33,429.35
                            446.37,431.90 448.98,436.32 449.84,439.24
                            452.19,447.17 450.48,457.21 441.59,459.82
                            441.96,462.68 442.47,465.15 442.38,468.06
                            442.11,476.05 438.02,484.93 429.24,486.03
                            424.76,486.58 422.66,485.60 418.53,484.53
                            418.53,490.22 419.14,497.42 416.92,502.65
                            411.46,515.51 398.31,513.96 388.88,506.76
                            387.19,512.42 385.43,516.74 379.82,519.71
                            369.04,525.44 354.62,519.35 353.47,506.76
                            350.04,508.68 347.47,510.70 343.59,511.67
                            341.44,512.21 339.21,512.55 337.00,512.27
                            322.35,510.45 323.00,495.46 323.00,484.53
                            310.41,488.61 300.12,484.16 299.94,469.71 Z
                          M 444.81,414.53
                          C 444.53,410.09 442.73,405.58 439.67,402.33
                            435.25,397.63 415.63,389.43 408.65,385.43
                            401.82,381.52 392.11,372.00 386.89,365.94
                            382.57,360.93 378.84,354.91 371.59,354.50
                            363.37,354.04 359.57,360.40 354.77,365.94
                            351.56,369.64 347.19,374.06 343.59,377.40
                            337.12,383.39 328.53,388.37 320.53,392.04
                            315.23,394.47 305.67,398.27 301.76,402.33
                            294.92,409.42 296.14,419.60 299.94,427.71
                            312.85,418.75 342.81,383.66 352.57,376.67
                            352.57,376.67 354.22,379.59 354.22,379.59
                            349.65,381.77 343.43,389.98 339.47,393.94
                            339.47,393.94 309.00,424.40 309.00,424.40
                            303.09,430.17 295.72,435.04 295.08,444.18
                            294.78,448.41 297.33,458.07 303.16,455.60
                            305.69,454.53 311.07,445.98 312.85,443.35
                            312.85,443.35 345.52,396.41 345.52,396.41
                            347.05,394.17 355.35,383.18 356.30,380.43
                            356.30,380.43 359.16,381.77 359.16,381.77
                            359.16,381.77 347.82,398.62 344.18,403.82
                            344.18,403.82 317.71,441.71 317.71,441.71
                            312.50,449.07 302.35,460.48 303.39,469.71
                            303.80,473.33 306.02,478.31 309.15,480.34
                            314.30,483.68 323.84,481.71 326.80,476.26
                            326.80,476.26 338.69,443.35 338.69,443.35
                            338.69,443.35 360.37,382.82 360.37,382.82
                            360.37,382.82 363.22,383.42 363.22,383.42
                            363.22,383.42 354.01,411.24 354.01,411.24
                            354.01,411.24 333.86,468.06 333.86,468.06
                            330.72,476.36 324.87,489.11 327.04,497.71
                            330.97,513.32 349.84,509.55 353.01,498.53
                            354.14,494.59 354.05,489.38 354.53,485.35
                            354.53,485.35 357.73,453.24 357.73,453.24
                            357.73,453.24 364.79,384.16 364.79,384.16
                            364.79,384.16 368.15,384.70 368.15,384.70
                            368.15,384.70 365.14,417.82 365.14,417.82
                            365.14,417.82 359.92,471.35 359.92,471.35
                            359.92,471.35 358.27,488.65 358.27,488.65
                            358.27,488.65 356.80,501.00 356.80,501.00
                            356.63,505.37 357.35,509.82 360.38,513.20
                            365.76,519.19 376.91,518.92 381.77,512.49
                            384.58,508.78 384.85,505.47 384.75,501.00
                            384.75,501.00 381.61,470.53 381.61,470.53
                            381.61,470.53 375.78,412.06 375.78,412.06
                            375.78,412.06 373.47,384.60 373.47,384.60
                            373.47,384.60 376.79,384.52 376.79,384.52
                            376.79,384.52 384.63,460.65 384.63,460.65
                            384.63,460.65 387.10,485.35 387.10,485.35
                            387.49,489.44 387.51,495.56 389.00,499.35
                            392.15,507.35 403.28,511.10 410.21,505.48
                            413.89,502.49 415.44,496.53 415.16,491.94
                            414.77,485.63 407.91,468.35 405.40,461.47
                            405.40,461.47 387.08,409.59 387.08,409.59
                            387.08,409.59 378.43,383.39 378.43,383.39
                            378.43,383.39 381.32,382.69 381.32,382.69
                            381.42,383.93 383.43,388.52 383.90,389.82
                            383.90,389.82 391.83,412.06 391.83,412.06
                            391.83,412.06 407.83,457.35 407.83,457.35
                            409.27,461.58 413.78,475.65 416.38,478.20
                            418.36,480.14 420.78,481.16 423.47,481.67
                            433.58,483.61 438.87,475.67 438.22,466.41
                            437.73,459.43 428.67,448.49 424.57,442.53
                            424.57,442.53 407.28,417.82 407.28,417.82
                            407.28,417.82 382.40,381.67 382.40,381.67
                            382.40,381.67 384.79,380.46 384.79,380.46
                            384.79,380.46 396.20,396.58 398.42,399.71
                            398.42,399.71 424.83,437.59 424.83,437.59
                            426.89,440.61 435.43,453.67 437.62,455.06
                            440.57,456.93 443.37,454.95 445.16,452.38
                            447.22,448.89 446.78,442.94 445.16,439.24
                            443.15,433.80 439.04,430.10 435.00,426.06
                            435.00,426.06 418.53,409.59 418.53,409.59
                            418.53,409.59 387.24,378.81 387.24,378.81
                            387.24,378.81 389.55,376.62 389.55,376.62
                            389.55,376.62 404.53,391.47 404.53,391.47
                            404.53,391.47 429.24,416.18 429.24,416.18
                            429.24,416.18 441.59,427.71 441.59,427.71
                            443.78,423.30 445.12,419.56 444.81,414.53 Z
                          M 343.59,371.71
                          C 347.35,369.93 350.04,367.24 351.82,363.47
                            343.61,363.48 343.60,363.49 343.59,371.71 Z
                          M 390.53,364.29
                          C 392.37,368.19 394.04,369.86 397.94,371.71
                            397.94,371.71 397.12,364.29 397.12,364.29
                            397.12,364.29 390.53,364.29 390.53,364.29 Z" />
</svg>
